<svg width="434" height="78" viewBox="0 0 434 78" fill="none" xmlns="http://www.w3.org/2000/svg">
<path d="M56.4652 67.8008C58.6515 67.8008 60.4341 67.4306 61.8132 66.69C63.1922 65.9495 64.1004 65.3941 64.5376 65.0238L70.4911 73.8597C70.0202 74.23 69.1457 74.7518 67.8675 75.425C66.5894 76.0982 64.9581 76.6872 62.9736 77.1921C61.0227 77.7307 58.786 78 56.2634 78C51.8908 78 47.9723 77.1248 44.5078 75.3745C41.0434 73.5905 38.3021 71.0659 36.284 67.8008C34.2995 64.5021 33.3073 60.5806 33.3073 56.0365C33.3073 51.4586 34.2995 47.5372 36.284 44.2721C38.3021 41.007 41.0434 38.4993 44.5078 36.7489C47.9723 34.9986 51.8908 34.1234 56.2634 34.1234C58.7524 34.1234 60.9555 34.3927 62.8727 34.9313C64.8235 35.4698 66.4548 36.0926 67.7666 36.7994C69.0784 37.4726 69.9865 38.028 70.4911 38.4656L64.3863 47.352C64.1508 47.0827 63.6967 46.7125 63.024 46.2412C62.3513 45.77 61.46 45.3324 60.35 44.9285C59.2737 44.5245 57.9788 44.3226 56.4652 44.3226C54.6152 44.3226 52.8494 44.8107 51.1676 45.7868C49.5195 46.763 48.1741 48.1262 47.1314 49.8766C46.0887 51.6269 45.5673 53.6802 45.5673 56.0365C45.5673 58.3927 46.0887 60.4628 47.1314 62.2468C48.1741 63.9972 49.5195 65.3604 51.1676 66.3366C52.8494 67.3128 54.6152 67.8008 56.4652 67.8008Z" fill="white"/>
<path d="M98.0257 78C93.6195 78 89.6842 77.0575 86.2197 75.1725C82.7889 73.2875 80.0981 70.7125 78.1473 67.4474C76.1964 64.1487 75.221 60.3955 75.221 56.1879C75.221 51.9804 76.1964 48.2272 78.1473 44.9285C80.0981 41.5961 82.7889 38.9705 86.2197 37.0519C89.6842 35.0996 93.6195 34.1234 98.0257 34.1234C102.466 34.1234 106.384 35.0996 109.781 37.0519C113.178 38.9705 115.836 41.5961 117.753 44.9285C119.67 48.2272 120.629 51.9804 120.629 56.1879C120.629 60.3955 119.67 64.1487 117.753 67.4474C115.836 70.7125 113.178 73.2875 109.781 75.1725C106.384 77.0575 102.466 78 98.0257 78ZM98.0257 67.3464C100.145 67.3464 101.978 66.8752 103.525 65.9327C105.106 64.9565 106.317 63.6269 107.158 61.9439C108.032 60.2272 108.469 58.2917 108.469 56.1374C108.469 53.9832 108.032 52.0477 107.158 50.331C106.317 48.6143 105.106 47.2679 103.525 46.2917C101.978 45.2819 100.145 44.777 98.0257 44.777C95.9067 44.777 94.0568 45.2819 92.4759 46.2917C90.9287 47.2679 89.7178 48.6143 88.8433 50.331C87.9688 52.0477 87.5315 53.9832 87.5315 56.1374C87.5315 58.2917 87.9688 60.2272 88.8433 61.9439C89.7178 63.6269 90.9287 64.9565 92.4759 65.9327C94.0568 66.8752 95.9067 67.3464 98.0257 67.3464Z" fill="white"/>
<path d="M147.191 78C143.256 78 139.791 77.0575 136.798 75.1725C133.838 73.2538 131.517 70.6452 129.835 67.3464C128.187 64.014 127.363 60.2609 127.363 56.087C127.363 51.913 128.187 48.1767 129.835 44.878C131.517 41.5456 133.838 38.9201 136.798 37.0014C139.791 35.0827 143.256 34.1234 147.191 34.1234C149.983 34.1234 152.455 34.5778 154.608 35.4867C156.794 36.3955 158.543 37.4726 159.855 38.7181C161.167 39.9635 161.94 41.0743 162.176 42.0505V7.31276H175.041V76.7882H162.327V69.568C161.789 70.7461 160.797 71.9916 159.35 73.3043C157.904 74.6171 156.138 75.7279 154.053 76.6367C151.967 77.5456 149.68 78 147.191 78ZM150.824 67.8008C152.977 67.8008 154.911 67.3128 156.626 66.3366C158.341 65.3268 159.687 63.9467 160.662 62.1964C161.671 60.4123 162.176 58.3759 162.176 56.087C162.176 53.798 161.671 51.7784 160.662 50.028C159.687 48.244 158.341 46.8471 156.626 45.8373C154.911 44.8275 152.977 44.3226 150.824 44.3226C148.839 44.3226 147.023 44.8275 145.375 45.8373C143.727 46.8135 142.398 48.1935 141.389 49.9776C140.414 51.7279 139.926 53.7644 139.926 56.087C139.926 58.4095 140.414 60.4628 141.389 62.2468C142.398 63.9972 143.727 65.3604 145.375 66.3366C147.023 67.3128 148.839 67.8008 150.824 67.8008Z" fill="white"/>
<path d="M216.808 76.7882V69.568C216.506 70.3086 215.732 71.352 214.487 72.6985C213.243 74.0449 211.561 75.2735 209.442 76.3843C207.357 77.4614 204.901 78 202.076 78C198.107 78 194.592 77.0575 191.531 75.1725C188.471 73.2538 186.066 70.6452 184.317 67.3464C182.601 64.014 181.744 60.2609 181.744 56.087C181.744 51.913 182.601 48.1767 184.317 44.878C186.066 41.5456 188.471 38.9201 191.531 37.0014C194.592 35.0827 198.107 34.1234 202.076 34.1234C204.834 34.1234 207.222 34.5947 209.24 35.5372C211.292 36.446 212.94 37.5231 214.185 38.7686C215.463 39.9804 216.287 41.0743 216.657 42.0505V35.3352H229.371V76.7882H216.808ZM194.306 56.087C194.306 58.4095 194.828 60.4628 195.87 62.2468C196.913 63.9972 198.292 65.3604 200.008 66.3366C201.723 67.3128 203.59 67.8008 205.608 67.8008C207.727 67.8008 209.61 67.3128 211.258 66.3366C212.907 65.3268 214.202 63.9467 215.143 62.1964C216.119 60.4123 216.606 58.3759 216.606 56.087C216.606 53.798 216.119 51.7784 215.143 50.028C214.202 48.244 212.907 46.8471 211.258 45.8373C209.61 44.8275 207.727 44.3226 205.608 44.3226C203.59 44.3226 201.723 44.8275 200.008 45.8373C198.292 46.8135 196.913 48.1935 195.87 49.9776C194.828 51.7279 194.306 53.7644 194.306 56.087Z" fill="white"/>
<path d="M236.36 35.3352H243.827V18.3198H256.541V35.3352H266.329V45.9888H256.541V60.9846C256.541 62.9705 256.86 64.5189 257.499 65.6297C258.138 66.7069 259.147 67.2454 260.526 67.2454C261.569 67.2454 262.427 67.0435 263.1 66.6395C263.772 66.202 264.176 65.899 264.31 65.7307L268.851 74.9201C268.649 75.122 267.994 75.4755 266.884 75.9804C265.807 76.4853 264.411 76.9397 262.696 77.3436C261.014 77.7812 259.114 78 256.995 78C253.194 78 250.049 76.906 247.56 74.7181C245.071 72.4965 243.827 69.0631 243.827 64.418V45.9888H236.36V35.3352Z" fill="white"/>
<path d="M287.376 55.1781C287.376 58.8808 288.116 61.8429 289.596 64.0645C291.076 66.2524 293.464 67.3464 296.76 67.3464C300.09 67.3464 302.495 66.2524 303.975 64.0645C305.455 61.8429 306.195 58.8808 306.195 55.1781V35.3352H318.808V56.6424C318.808 60.9172 317.951 64.6704 316.235 67.9018C314.52 71.0996 312.014 73.5905 308.718 75.3745C305.455 77.1248 301.469 78 296.76 78C292.085 78 288.099 77.1248 284.803 75.3745C281.54 73.5905 279.051 71.0996 277.336 67.9018C275.621 64.6704 274.763 60.9172 274.763 56.6424V35.3352H287.376V55.1781Z" fill="white"/>
<path d="M341.127 76.7882H328.311V35.3352H341.127V42.0505H340.874C341.11 41.2426 341.749 40.216 342.791 38.9705C343.868 37.7251 345.348 36.6143 347.231 35.6381C349.115 34.6283 351.385 34.1234 354.042 34.1234C355.96 34.1234 357.692 34.4095 359.239 34.9818C360.82 35.5203 361.947 36.0589 362.619 36.5975L357.574 47.0996C357.137 46.561 356.313 46.0056 355.102 45.4334C353.925 44.8611 352.445 44.575 350.662 44.575C348.543 44.575 346.777 45.1641 345.365 46.3422C343.952 47.4867 342.892 48.9004 342.186 50.5834C341.48 52.2328 341.127 53.7812 341.127 55.2286V76.7882Z" fill="white"/>
<path d="M375.953 58.9144C376.054 60.7994 376.559 62.4825 377.467 63.9635C378.375 65.4446 379.687 66.6059 381.402 67.4474C383.151 68.2889 385.237 68.7097 387.658 68.7097C389.845 68.7097 391.762 68.4404 393.41 67.9018C395.092 67.3633 396.504 66.7069 397.648 65.9327C398.825 65.1248 399.7 64.3506 400.271 63.6101L405.569 71.4867C404.627 72.6648 403.366 73.7588 401.785 74.7686C400.238 75.7447 398.253 76.5189 395.832 77.0912C393.444 77.6971 390.45 78 386.851 78C382.31 78 378.324 77.108 374.894 75.324C371.463 73.54 368.789 70.9649 366.872 67.5989C364.954 64.2328 363.996 60.2272 363.996 55.582C363.996 51.5428 364.854 47.9074 366.569 44.676C368.284 41.4109 370.773 38.8359 374.036 36.9509C377.332 35.0659 381.284 34.1234 385.892 34.1234C390.231 34.1234 393.982 34.9649 397.143 36.648C400.339 38.2973 402.811 40.7209 404.56 43.9187C406.309 47.1164 407.184 51.021 407.184 55.6325C407.184 55.9018 407.167 56.4572 407.133 57.2987C407.133 58.1066 407.099 58.6452 407.032 58.9144H375.953ZM395.176 50.9874C395.142 49.9102 394.806 48.7489 394.167 47.5035C393.561 46.2581 392.603 45.1978 391.291 44.3226C389.979 43.4474 388.23 43.0098 386.044 43.0098C383.857 43.0098 382.058 43.4306 380.645 44.2721C379.266 45.1136 378.224 46.1571 377.517 47.4025C376.811 48.6143 376.407 49.8093 376.306 50.9874H395.176Z" fill="white"/>
<path d="M425.726 78C423.472 78 421.538 77.1921 419.924 75.5764C418.309 73.9607 417.502 72.0252 417.502 69.77C417.502 67.4474 418.309 65.4783 419.924 63.8626C421.538 62.2468 423.472 61.439 425.726 61.439C428.047 61.439 429.997 62.2468 431.578 63.8626C433.193 65.4783 434 67.4474 434 69.77C434 72.0252 433.193 73.9607 431.578 75.5764C429.997 77.1921 428.047 78 425.726 78Z" fill="#76FF7A"/>
<path d="M0.165413 50.7423C-0.465605 43.2532 0.714605 35.7221 3.60625 28.7859C6.4979 21.8497 11.016 15.7122 16.7784 10.8925C22.5409 6.07278 29.3783 2.71251 36.7125 1.09581C44.0467 -0.520888 51.6621 -0.346473 58.9147 1.60431L56.6507 10.0342C50.7505 8.44724 44.5553 8.30535 38.5888 9.62056C32.6223 10.9358 27.0599 13.6694 22.3721 17.5903C17.6842 21.5113 14.0087 26.5042 11.6563 32.1469C9.30387 37.7897 8.34375 43.9164 8.85709 50.0089L0.165413 50.7423Z" fill="#76FF7A"/>
<path d="M15.8743 48.8464C15.4631 43.9659 16.2322 39.058 18.1167 34.5378C20.0011 30.0175 22.9455 26.0178 26.7008 22.8769C30.4561 19.7359 34.9119 17.5461 39.6915 16.4925C44.4711 15.4389 49.4339 15.5526 54.1604 16.8239L52.0609 24.6413C48.5886 23.7074 44.9428 23.6239 41.4315 24.3979C37.9202 25.1719 34.6468 26.7806 31.888 29.0881C29.1292 31.3955 26.9662 34.3338 25.5818 37.6546C24.1974 40.9753 23.6324 44.5808 23.9345 48.1663L15.8743 48.8464Z" fill="#76FF7A"/>
</svg>
